<?xml version="1.0" encoding="utf-8"?>
<svg viewBox="0 0 500 500" xmlns="http://www.w3.org/2000/svg">
  <g transform="matrix(0.2177630066871643, 0, 0, 0.2177630066871643, 42.54836654663083, 100.35542297363281)" style="">
    <path d="M167.3 -166.4C193.1 -141.4 174 -70.7 164.7 -9.3C155.4 52.1 155.8 104.2 130 141.7C104.2 179.2 52.1 202.1 4.7 197.4C-42.7 192.7 -85.3 160.3 -117.7 122.8C-150 85.3 -172 42.7 -168.6 3.4C-165.2 -35.8 -136.3 -71.7 -104 -96.7C-71.7 -121.7 -35.8 -135.8 17.4 -153.3C70.7 -170.7 141.4 -191.4 167.3 -166.4" fill="#4d614e"/>
  </g>
  <g transform="matrix(0.24327503144741058, 0, 0, 0.24327503144741058, 521.6483154296874, 372.9544982910156)" style="">
    <path d="M120.7 -95.9C170.7 -70.7 235.4 -35.4 243.6 8.2C251.9 51.9 203.7 103.7 153.7 136.7C103.7 169.7 51.9 183.9 -5.7 189.5C-63.2 195.2 -126.3 192.3 -157.8 159.3C-189.3 126.3 -189.2 63.2 -175.3 13.9C-161.4 -35.4 -133.7 -70.7 -102.2 -95.9C-70.7 -121 -35.4 -136 0 -136C35.4 -136 70.7 -121 120.7 -95.9" fill="#4d614e"/>
  </g>
  <g transform="matrix(0.25317198038101196, 0, 0, 0.25317198038101196, 249.26373291015622, 421.4822692871094)" style="">
    <path d="M164.5 -174.4C189.5 -139.5 169.8 -69.8 158.5 -11.3C147.1 47.1 144.3 94.3 119.3 130.4C94.3 166.6 47.1 191.8 0.5 191.3C-46.2 190.9 -92.4 164.7 -136.7 128.6C-181.1 92.4 -223.5 46.2 -235.8 -12.3C-248 -70.7 -230.1 -141.4 -185.8 -176.3C-141.4 -211.1 -70.7 -210 -0.5 -209.6C69.8 -209.1 139.5 -209.2 164.5 -174.4" fill="#dfbfbf"/>
  </g>
  <g transform="matrix(0.8137760162353516, 0, 0, 0.8137760162353516, 188.4230804443359, 165.4635772705078)" style="">
    <path d="M 489.558 33.751 C 507.793 44.576 516.833 72.006 515.63 98.233 C 514.466 124.499 503.06 149.563 484.825 159.262 C 466.59 168.962 441.526 163.297 420.11 159.65 C 398.732 155.964 380.963 154.335 364.047 144.635 C 347.092 134.936 330.952 117.167 328.974 97.457 C 327.034 77.748 339.216 56.099 356.171 45.274 C 373.126 34.488 394.775 34.566 419.334 31.695 C 443.893 28.824 471.323 22.965 489.558 33.751" fill="#dfbfbf" style=""/>
  </g>
  <g transform="matrix(0.30654701590538025, 0, 0, 0.30654701590538025, 251.06298828124997, 102.68988037109375)" style="">
    <path d="M96 -109.2C121.4 -70.7 136.7 -35.4 149.3 12.6C161.9 60.6 171.8 121.2 146.5 155.3C121.2 189.5 60.6 197.2 9.3 187.9C-42 178.6 -83.9 152.2 -133.9 118.1C-183.9 83.9 -242 42 -242 0C-242 -42 -183.9 -83.9 -133.9 -122.4C-83.9 -160.9 -42 -196 -3.3 -192.7C35.4 -189.4 70.7 -147.7 96 -109.2" fill="#dfbfbf"/>
  </g>
  <g transform="matrix(-0.033146999776, 0.215123981237, -0.17868603766, -0.109434016049, 467.987908153389, 119.214191922791)" style="transform-origin: -39.883px -0.687448px;">
    <path d="M96 -109.2C121.4 -70.7 136.7 -35.4 149.3 12.6C161.9 60.6 171.8 121.2 146.5 155.3C121.2 189.5 60.6 197.2 9.3 187.9C-42 178.6 -83.9 152.2 -133.9 118.1C-183.9 83.9 -242 42 -242 0C-242 -42 -183.9 -83.9 -133.9 -122.4C-83.9 -160.9 -42 -196 -3.3 -192.7C35.4 -189.4 70.7 -147.7 96 -109.2" fill="#4d614e"/>
  </g>
  <g transform="matrix(0.3178250193595886, 0, 0, 0.3178250193595886, -38.40990447998047, 389.0953063964844)" style="">
    <path d="M120.7 -95.9C170.7 -70.7 235.4 -35.4 243.6 8.2C251.9 51.9 203.7 103.7 153.7 136.7C103.7 169.7 51.9 183.9 -5.7 189.5C-63.2 195.2 -126.3 192.3 -157.8 159.3C-189.3 126.3 -189.2 63.2 -175.3 13.9C-161.4 -35.4 -133.7 -70.7 -102.2 -95.9C-70.7 -121 -35.4 -136 0 -136C35.4 -136 70.7 -121 120.7 -95.9" fill="#4d614e"/>
  </g>
  <g transform="matrix(0.27275800704956055, 0, 0, 0.2911739945411682, 32.84159851074216, 240.0302276611328)" style="">
    <path d="M -21.294 -130.203 C -3.145 -91.766 -35.469 -26.33 -57.444 29.442 C -79.5 85.099 -91.009 131.126 -122.322 162.61 C -153.654 194.192 -204.809 211.33 -250.608 203.255 C -296.524 195.263 -337.164 161.944 -374.097 119.185 C -411.11 76.311 -444.3 23.915 -445.566 -35.697 C -446.752 -95.195 -416.015 -161.908 -365.917 -189.069 C -315.74 -216.116 -246.318 -203.53 -177.259 -191.714 C -108.121 -179.784 -39.462 -168.542 -21.294 -130.203" fill="#dfbfbf" style="transform-origin: -244.916px 0.599px;"/>
  </g>
</svg>