<svg id="visual" viewBox="0 0 900 450" width="900" height="450" xmlns="http://www.w3.org/2000/svg" xmlns:xlink="http://www.w3.org/1999/xlink" version="1.1"><path d="M0 144L21.5 141.2C43 138.3 86 132.7 128.8 127.8C171.7 123 214.3 119 257.2 116C300 113 343 111 385.8 106.2C428.7 101.3 471.3 93.7 514.2 91.3C557 89 600 92 642.8 101.5C685.7 111 728.3 127 771.2 133.8C814 140.7 857 138.3 878.5 137.2L900 136L900 0L878.5 0C857 0 814 0 771.2 0C728.3 0 685.7 0 642.8 0C600 0 557 0 514.2 0C471.3 0 428.7 0 385.8 0C343 0 300 0 257.2 0C214.3 0 171.7 0 128.8 0C86 0 43 0 21.5 0L0 0Z" fill="#f0d7d7"></path><path d="M0 115L21.5 116C43 117 86 119 128.8 114.3C171.7 109.7 214.3 98.3 257.2 90.8C300 83.3 343 79.7 385.8 77.5C428.7 75.3 471.3 74.7 514.2 73.8C557 73 600 72 642.8 73.2C685.7 74.3 728.3 77.7 771.2 80.2C814 82.7 857 84.3 878.5 85.2L900 86L900 0L878.5 0C857 0 814 0 771.2 0C728.3 0 685.7 0 642.8 0C600 0 557 0 514.2 0C471.3 0 428.7 0 385.8 0C343 0 300 0 257.2 0C214.3 0 171.7 0 128.8 0C86 0 43 0 21.5 0L0 0Z" fill="#d4bcb4"></path><path d="M0 90L21.5 90.7C43 91.3 86 92.7 128.8 94C171.7 95.3 214.3 96.7 257.2 95.8C300 95 343 92 385.8 90.8C428.7 89.7 471.3 90.3 514.2 86.7C557 83 600 75 642.8 72.7C685.7 70.3 728.3 73.7 771.2 75.2C814 76.7 857 76.3 878.5 76.2L900 76L900 0L878.5 0C857 0 814 0 771.2 0C728.3 0 685.7 0 642.8 0C600 0 557 0 514.2 0C471.3 0 428.7 0 385.8 0C343 0 300 0 257.2 0C214.3 0 171.7 0 128.8 0C86 0 43 0 21.5 0L0 0Z" fill="#b5a394"></path><path d="M0 43L21.5 49.2C43 55.3 86 67.7 128.8 73.7C171.7 79.7 214.3 79.3 257.2 77.7C300 76 343 73 385.8 67.3C428.7 61.7 471.3 53.3 514.2 53.3C557 53.3 600 61.7 642.8 61.2C685.7 60.7 728.3 51.3 771.2 51.2C814 51 857 60 878.5 64.5L900 69L900 0L878.5 0C857 0 814 0 771.2 0C728.3 0 685.7 0 642.8 0C600 0 557 0 514.2 0C471.3 0 428.7 0 385.8 0C343 0 300 0 257.2 0C214.3 0 171.7 0 128.8 0C86 0 43 0 21.5 0L0 0Z" fill="#938b77"></path><path d="M0 46L21.5 44.5C43 43 86 40 128.8 38.8C171.7 37.7 214.3 38.3 257.2 38.8C300 39.3 343 39.7 385.8 40.2C428.7 40.7 471.3 41.3 514.2 41.2C557 41 600 40 642.8 38.2C685.7 36.3 728.3 33.7 771.2 32.3C814 31 857 31 878.5 31L900 31L900 0L878.5 0C857 0 814 0 771.2 0C728.3 0 685.7 0 642.8 0C600 0 557 0 514.2 0C471.3 0 428.7 0 385.8 0C343 0 300 0 257.2 0C214.3 0 171.7 0 128.8 0C86 0 43 0 21.5 0L0 0Z" fill="#6f7560"></path><path d="M0 29L21.5 28C43 27 86 25 128.8 25C171.7 25 214.3 27 257.2 29.3C300 31.7 343 34.3 385.8 31.8C428.7 29.3 471.3 21.7 514.2 20.5C557 19.3 600 24.7 642.8 26.2C685.7 27.7 728.3 25.3 771.2 25.3C814 25.3 857 27.7 878.5 28.8L900 30L900 0L878.5 0C857 0 814 0 771.2 0C728.3 0 685.7 0 642.8 0C600 0 557 0 514.2 0C471.3 0 428.7 0 385.8 0C343 0 300 0 257.2 0C214.3 0 171.7 0 128.8 0C86 0 43 0 21.5 0L0 0Z" fill="#4c5f4d"></path></svg>