<svg id="visual" viewBox="0 0 960 540" width="960" height="540" xmlns="http://www.w3.org/2000/svg" xmlns:xlink="http://www.w3.org/1999/xlink" version="1.1"><path d="M0 178L22.8 175.8C45.7 173.7 91.3 169.3 137 159.7C182.7 150 228.3 135 274 135C319.7 135 365.3 150 411.2 151.2C457 152.3 503 139.7 548.8 134.5C594.7 129.3 640.3 131.7 686 129.2C731.7 126.7 777.3 119.3 823 121.8C868.7 124.3 914.3 136.7 937.2 142.8L960 149L960 0L937.2 0C914.3 0 868.7 0 823 0C777.3 0 731.7 0 686 0C640.3 0 594.7 0 548.8 0C503 0 457 0 411.2 0C365.3 0 319.7 0 274 0C228.3 0 182.7 0 137 0C91.3 0 45.7 0 22.8 0L0 0Z" fill="#f0d7d7"></path><path d="M0 101L22.8 104C45.7 107 91.3 113 137 111.8C182.7 110.7 228.3 102.3 274 106.2C319.7 110 365.3 126 411.2 135C457 144 503 146 548.8 146.8C594.7 147.7 640.3 147.3 686 146.5C731.7 145.7 777.3 144.3 823 140C868.7 135.7 914.3 128.3 937.2 124.7L960 121L960 0L937.2 0C914.3 0 868.7 0 823 0C777.3 0 731.7 0 686 0C640.3 0 594.7 0 548.8 0C503 0 457 0 411.2 0C365.3 0 319.7 0 274 0C228.3 0 182.7 0 137 0C91.3 0 45.7 0 22.8 0L0 0Z" fill="#d4bcb4"></path><path d="M0 100L22.8 98.8C45.7 97.7 91.3 95.3 137 93.5C182.7 91.7 228.3 90.3 274 94C319.7 97.7 365.3 106.3 411.2 103.5C457 100.7 503 86.3 548.8 83.3C594.7 80.3 640.3 88.7 686 94.5C731.7 100.3 777.3 103.7 823 102.7C868.7 101.7 914.3 96.3 937.2 93.7L960 91L960 0L937.2 0C914.3 0 868.7 0 823 0C777.3 0 731.7 0 686 0C640.3 0 594.7 0 548.8 0C503 0 457 0 411.2 0C365.3 0 319.7 0 274 0C228.3 0 182.7 0 137 0C91.3 0 45.7 0 22.8 0L0 0Z" fill="#b5a394"></path><path d="M0 58L22.8 64.7C45.7 71.3 91.3 84.7 137 86.7C182.7 88.7 228.3 79.3 274 77.7C319.7 76 365.3 82 411.2 83.3C457 84.7 503 81.3 548.8 82.5C594.7 83.7 640.3 89.3 686 92.2C731.7 95 777.3 95 823 89.7C868.7 84.3 914.3 73.7 937.2 68.3L960 63L960 0L937.2 0C914.3 0 868.7 0 823 0C777.3 0 731.7 0 686 0C640.3 0 594.7 0 548.8 0C503 0 457 0 411.2 0C365.3 0 319.7 0 274 0C228.3 0 182.7 0 137 0C91.3 0 45.7 0 22.8 0L0 0Z" fill="#938b77"></path><path d="M0 64L22.8 60.2C45.7 56.3 91.3 48.7 137 43.8C182.7 39 228.3 37 274 41.8C319.7 46.7 365.3 58.3 411.2 64.2C457 70 503 70 548.8 64.7C594.7 59.3 640.3 48.7 686 44.3C731.7 40 777.3 42 823 43.8C868.7 45.7 914.3 47.3 937.2 48.2L960 49L960 0L937.2 0C914.3 0 868.7 0 823 0C777.3 0 731.7 0 686 0C640.3 0 594.7 0 548.8 0C503 0 457 0 411.2 0C365.3 0 319.7 0 274 0C228.3 0 182.7 0 137 0C91.3 0 45.7 0 22.8 0L0 0Z" fill="#6f7560"></path><path d="M0 21L22.8 23.2C45.7 25.3 91.3 29.7 137 29.7C182.7 29.7 228.3 25.3 274 26.8C319.7 28.3 365.3 35.7 411.2 39.2C457 42.7 503 42.3 548.8 41.7C594.7 41 640.3 40 686 38C731.7 36 777.3 33 823 29.8C868.7 26.7 914.3 23.3 937.2 21.7L960 20L960 0L937.2 0C914.3 0 868.7 0 823 0C777.3 0 731.7 0 686 0C640.3 0 594.7 0 548.8 0C503 0 457 0 411.2 0C365.3 0 319.7 0 274 0C228.3 0 182.7 0 137 0C91.3 0 45.7 0 22.8 0L0 0Z" fill="#4c5f4d"></path></svg>