<svg id="visual" viewBox="0 0 960 540" width="960" height="540" xmlns="http://www.w3.org/2000/svg" xmlns:xlink="http://www.w3.org/1999/xlink" version="1.1"><path d="M0 360L22.8 362.2C45.7 364.3 91.3 368.7 137 378.3C182.7 388 228.3 403 274 403C319.7 403 365.3 388 411.2 386.8C457 385.7 503 398.3 548.8 403.5C594.7 408.7 640.3 406.3 686 408.8C731.7 411.3 777.3 418.7 823 416.2C868.7 413.7 914.3 401.3 937.2 395.2L960 389L960 541L937.2 541C914.3 541 868.7 541 823 541C777.3 541 731.7 541 686 541C640.3 541 594.7 541 548.8 541C503 541 457 541 411.2 541C365.3 541 319.7 541 274 541C228.3 541 182.7 541 137 541C91.3 541 45.7 541 22.8 541L0 541Z" fill="#f0d7d7"></path><path d="M0 437L22.8 434C45.7 431 91.3 425 137 426.2C182.7 427.3 228.3 435.7 274 431.8C319.7 428 365.3 412 411.2 403C457 394 503 392 548.8 391.2C594.7 390.3 640.3 390.7 686 391.5C731.7 392.3 777.3 393.7 823 398C868.7 402.3 914.3 409.7 937.2 413.3L960 417L960 541L937.2 541C914.3 541 868.7 541 823 541C777.3 541 731.7 541 686 541C640.3 541 594.7 541 548.8 541C503 541 457 541 411.2 541C365.3 541 319.7 541 274 541C228.3 541 182.7 541 137 541C91.3 541 45.7 541 22.8 541L0 541Z" fill="#d4bcb4"></path><path d="M0 438L22.8 439.2C45.7 440.3 91.3 442.7 137 444.5C182.7 446.3 228.3 447.7 274 444C319.7 440.3 365.3 431.7 411.2 434.5C457 437.3 503 451.7 548.8 454.7C594.7 457.7 640.3 449.3 686 443.5C731.7 437.7 777.3 434.3 823 435.3C868.7 436.3 914.3 441.7 937.2 444.3L960 447L960 541L937.2 541C914.3 541 868.7 541 823 541C777.3 541 731.7 541 686 541C640.3 541 594.7 541 548.8 541C503 541 457 541 411.2 541C365.3 541 319.7 541 274 541C228.3 541 182.7 541 137 541C91.3 541 45.7 541 22.8 541L0 541Z" fill="#b5a394"></path><path d="M0 480L22.8 473.3C45.7 466.7 91.3 453.3 137 451.3C182.7 449.3 228.3 458.7 274 460.3C319.7 462 365.3 456 411.2 454.7C457 453.3 503 456.7 548.8 455.5C594.7 454.3 640.3 448.7 686 445.8C731.7 443 777.3 443 823 448.3C868.7 453.7 914.3 464.3 937.2 469.7L960 475L960 541L937.2 541C914.3 541 868.7 541 823 541C777.3 541 731.7 541 686 541C640.3 541 594.7 541 548.8 541C503 541 457 541 411.2 541C365.3 541 319.7 541 274 541C228.3 541 182.7 541 137 541C91.3 541 45.7 541 22.8 541L0 541Z" fill="#938b77"></path><path d="M0 474L22.8 477.8C45.7 481.7 91.3 489.3 137 494.2C182.7 499 228.3 501 274 496.2C319.7 491.3 365.3 479.7 411.2 473.8C457 468 503 468 548.8 473.3C594.7 478.7 640.3 489.3 686 493.7C731.7 498 777.3 496 823 494.2C868.7 492.3 914.3 490.7 937.2 489.8L960 489L960 541L937.2 541C914.3 541 868.7 541 823 541C777.3 541 731.7 541 686 541C640.3 541 594.7 541 548.8 541C503 541 457 541 411.2 541C365.3 541 319.7 541 274 541C228.3 541 182.7 541 137 541C91.3 541 45.7 541 22.8 541L0 541Z" fill="#6f7560"></path><path d="M0 517L22.8 514.8C45.7 512.7 91.3 508.3 137 508.3C182.7 508.3 228.3 512.7 274 511.2C319.7 509.7 365.3 502.3 411.2 498.8C457 495.3 503 495.7 548.8 496.3C594.7 497 640.3 498 686 500C731.7 502 777.3 505 823 508.2C868.7 511.3 914.3 514.7 937.2 516.3L960 518L960 541L937.2 541C914.3 541 868.7 541 823 541C777.3 541 731.7 541 686 541C640.3 541 594.7 541 548.8 541C503 541 457 541 411.2 541C365.3 541 319.7 541 274 541C228.3 541 182.7 541 137 541C91.3 541 45.7 541 22.8 541L0 541Z" fill="#4c5f4d"></path></svg>